#!OML:ASF F:\VICON\USERDATA\INSTALL\rory3\rory3.ASF
:FULLY-SPECIFIED
:DEGREES
1723
root 0.414511 17.7986 1.11567 0.728066 35.9951 -10.7743
lowerback 3.8529 4.43734 1.7707
upperback -0.190532 5.9218 -5.67167
thorax -1.56692 2.95375 -7.16835
lowerneck -23.0791 -13.439 -12.3498
upperneck 0.81411 -15.5873 14.4007
head 5.97015 -6.6534 4.5525
rclavicle 3.97569e-016 6.36111e-014
rhumerus 63.0677 -16.7316 -20.2262
rradius 37.0983
rwrist 49.6142
rhand -51.9723 -12.3254
rfingers 7.12502
rthumb -24.481 -40.7809
lclavicle 3.97569e-016 6.36111e-014
lhumerus 90.145 -51.755 23.5533
lradius 39.0842
lwrist -43.5861
lhand -45.3783 48.9703
lfingers 7.12502
lthumb -18.1476 78.1437
rfemur -1.7664 -9.55609 22.4143
rtibia 16.837
rfoot -21.7258 -20.7156
rtoes -1.1742
lfemur -23.5799 -5.17625 -5.98733
ltibia 33.9961
lfoot -15.187 -7.22017
ltoes -17.3348
1724
root 0.414972 17.7977 1.12638 0.4257 36.2187 -11.0858
lowerback 3.93406 4.39884 1.78861
upperback -0.0747479 5.87463 -5.62227
thorax -1.5022 2.93363 -7.12551
lowerneck -23.2319 -13.6033 -12.361
upperneck 0.796909 -15.8004 14.5485
head 6.02933 -6.73678 4.55872
rclavicle 4.53229e-014 2.8625e-014
rhumerus 63.0145 -16.1742 -19.303
rradius 37.3799
rwrist 50.1224
rhand -52.071 -12.4633
rfingers 7.12502
rthumb -24.5756 -40.9059
lclavicle 4.53229e-014 2.8625e-014
lhumerus 90.145 -51.755 23.5533
lradius 39.0842
lwrist -43.5861
lhand -45.3783 48.9703
lfingers 7.12502
lthumb -18.1476 78.1437
rfemur -1.49376 -9.4503 22.7012
rtibia 16.6434
rfoot -21.8792 -20.8849
rtoes -0.713463
lfemur -23.5537 -5.27482 -5.70147
ltibia 34.0947
lfoot -15.2891 -7.34281
ltoes -17.4888
1725
root 0.417611 17.7967 1.13242 0.236287 36.4954 -11.3677
lowerback 3.97288 4.38385 1.88166
upperback -0.0195355 5.8608 -5.67243
thorax -1.45388 2.92913 -7.23141
lowerneck -23.1905 -13.7757 -12.3423
upperneck 0.677718 -16.0653 14.8451
head 6.04992 -6.84586 4.60664
rclavicle -1.08934e-013 6.99722e-014
rhumerus 62.8573 -15.7486 -18.6251
rradius 37.5727
rwrist 50.6568
rhand -52.1468 -12.3872
rfingers 7.12502
rthumb -24.6482 -40.8199
lclavicle -1.08934e-013 6.99722e-014
lhumerus 90.145 -51.755 23.5533
lradius 39.0842
lwrist -43.5861
lhand -45.3783 48.9703
lfingers 7.12502
lthumb -18.1476 78.1437
rfemur -1.36028 -9.51667 22.9404
rtibia 16.4829
rfoot -22.0328 -20.9837
rtoes -0.124969
lfemur -23.6581 -5.37466 -5.44981
ltibia 34.1873
lfoot -15.3675 -7.5649
ltoes -17.4664
1726
root 0.421381 17.7958 1.13574 0.127222 36.7969 -11.6542
lowerback 3.99843 4.36238 1.98276
upperback -0.0796074 5.83446 -5.72821
thorax -1.51804 2.91275 -7.35334
lowerneck -22.9195 -13.9036 -12.259
upperneck 0.563675 -16.3102 15.058
head 6.0234 -6.96381 4.63017
rclavicle 2.3059e-014 -9.54166e-015
rhumerus 62.5861 -15.2343 -17.9117
rradius 37.8348
rwrist 50.9578
rhand -52.0935 -12.7176
rfingers 7.12502
rthumb -24.5971 -41.1573
lclavicle 2.3059e-014 -9.54166e-015
lhumerus 90.145 -51.755 23.5533
lradius 39.0842
lwrist -43.5861
lhand -45.3783 48.9703
lfingers 7.12502
lthumb -18.1476 78.1437
rfemur -1.35422 -9.7765 23.1831
rtibia 16.3746
rfoot -21.9207 -21.0544
rtoes -0.285061
lfemur -23.8687 -5.49603 -5.19759
ltibia 34.265
lfoot -15.3628 -7.73845
ltoes -17.2426
1727
root 0.422539 17.7974 1.14192 0.0353219 37.0394 -11.8854
lowerback 3.98951 4.33711 1.94726
upperback -0.101608 5.79818 -5.71646
thorax -1.54572 2.89335 -7.32017
lowerneck -22.9754 -14.068 -12.1097
upperneck 0.728974 -16.5821 14.9944
head 6.09902 -7.09133 4.53523
rclavicle -4.85035e-014 -9.54166e-015
rhumerus 62.3893 -14.728 -17.0973
rradius 38.1283
rwrist 50.9445
rhand -52.3117 -12.4534
rfingers 7.12502
rthumb -24.8063 -40.8644
lclavicle -4.85035e-014 -9.54166e-015
lhumerus 90.145 -51.755 23.5533
lradius 39.0842
lwrist -43.5861
lhand -45.3783 48.9703
lfingers 7.12502
lthumb -18.1476 78.1437
rfemur -1.34341 -9.88893 23.3984
rtibia 16.3215
rfoot -21.8472 -21.1809
rtoes -0.722898
lfemur -24.0327 -5.56951 -4.99034
ltibia 34.3266
lfoot -15.3473 -7.87334
ltoes -17.2697
1728
root 0.42447 17.7989 1.14701 -0.0148642 37.1977 -12.0707
lowerback 3.88562 4.33056 1.87617
upperback -0.0655567 5.78849 -5.69245
thorax -1.46116 2.8918 -7.24199
lowerneck -23.2985 -14.3111 -12.1658
upperneck 1.05506 -16.9103 15.0867
head 6.30538 -7.21772 4.49393
rclavicle 1.59028e-014 -3.81667e-014
rhumerus 62.2592 -14.2887 -16.5823
rradius 38.4488
rwrist 50.9568
rhand -52.3596 -11.9769
rfingers 7.12502
rthumb -24.8521 -40.3816
lclavicle 1.59028e-014 -3.81667e-014
lhumerus 90.145 -51.755 23.5533
lradius 39.0842
lwrist -43.5861
lhand -45.3783 48.9703
lfingers 7.12502
lthumb -18.1476 78.1437
rfemur -1.40447 -9.9177 23.5688
rtibia 16.3544
rfoot -21.8467 -21.2691
rtoes -1.1238
lfemur -24.154 -5.68575 -4.8101
ltibia 34.3535
lfoot -15.3234 -7.90342
ltoes -16.8583
1729
root 0.425945 17.8001 1.15068 -0.0741763 37.3382 -12.2047
lowerback 3.84598 4.31522 1.81829
upperback -0.0391391 5.76682 -5.73941
thorax -1.41541 2.88346 -7.2532
lowerneck -23.4885 -14.4996 -12.1023
upperneck 1.23399 -17.1998 15.2031
head 6.43506 -7.33237 4.45725
rclavicle 5.56597e-015 3.49861e-014
rhumerus 62.0265 -13.8234 -16.2158
rradius 38.8968
rwrist 50.851
rhand -52.6369 -12.6898
rfingers 7.12502
rthumb -25.1179 -41.0576
lclavicle 5.56597e-015 3.49861e-014
lhumerus 90.145 -51.755 23.5533
lradius 39.0842
lwrist -43.5861
lhand -45.3783 48.9703
lfingers 7.12502
lthumb -18.1476 78.1437
rfemur -1.44471 -10.02 23.6681
rtibia 16.4111
rfoot -21.7434 -21.275
rtoes -1.45095
lfemur -24.2152 -5.78582 -4.68684
ltibia 34.3539
lfoot -15.3127 -7.94963
ltoes -16.5216
1730
root 0.426247 17.8024 1.15466 -0.107981 37.4405 -12.1904
lowerback 3.93442 4.33619 1.64086
upperback -0.0473002 5.78517 -5.79417
thorax -1.48268 2.8922 -7.22032
lowerneck -23.424 -14.6561 -12.1344
upperneck 1.34699 -17.4468 15.3325
head 6.51125 -7.44171 4.4564
rclavicle -2.38542e-015 2.22639e-014
rhumerus 61.6785 -13.3592 -15.7431
rradius 39.4606
rwrist 50.8342
rhand -52.0547 -12.6701
rfingers 7.12502
rthumb -24.5599 -41.1148
lclavicle -2.38542e-015 2.22639e-014
lhumerus 90.145 -51.755 23.5533
lradius 39.0842
lwrist -43.5861
lhand -45.3783 48.9703
lfingers 7.12502
lthumb -18.1476 78.1437
rfemur -1.40862 -10.1046 23.639
rtibia 16.4662
rfoot -21.5805 -21.2361
rtoes -1.72765
lfemur -24.1817 -5.83536 -4.71371
ltibia 34.3453
lfoot -15.3656 -7.95947
ltoes -16.8055
1731
root 0.424037 17.8038 1.15968 -0.209694 37.5468 -12.2575
lowerback 4.03414 4.34291 1.43359
upperback -0.0559575 5.78221 -5.75296
thorax -1.57271 2.88901 -7.06923
lowerneck -23.178 -14.742 -12.3362
upperneck 1.29804 -17.5831 15.693
head 6.53829 -7.49664 4.58213
rclavicle 5.725e-014 -9.54166e-015
rhumerus 61.4475 -12.9241 -15.334
rradius 39.9311
rwrist 50.9207
rhand -51.6607 -12.5032
rfingers 7.12502
rthumb -24.1822 -40.9987
lclavicle 5.725e-014 -9.54166e-015
lhumerus 90.145 -51.755 23.5533
lradius 39.0842
lwrist -43.5861
lhand -45.3783 48.9703
lfingers 7.12502
lthumb -18.1476 78.1437
rfemur -1.35614 -10.02 23.7013
rtibia 16.5527
rfoot -21.6948 -21.2106
rtoes -1.32731
lfemur -24.1462 -5.85097 -4.65924
ltibia 34.3333
lfoot -15.3962 -8.03508
ltoes -16.8377
1732
root 0.422163 17.8032 1.16453 -0.326643 37.6128 -12.4337
lowerback 4.06959 4.35792 1.34561
upperback -0.0813526 5.79618 -5.73573
thorax -1.62757 2.89446 -7.0066
lowerneck -22.9043 -14.7543 -12.3613
upperneck 1.20575 -17.6647 16.0335
head 6.52466 -7.52898 4.68889
rclavicle 6.91771e-014 -3.18055e-014
rhumerus 61.1577 -12.4507 -14.9649
rradius 40.2162
rwrist 50.5599
rhand -51.8527 -12.5828
rfingers 7.12502
rthumb -24.3663 -41.0537
lclavicle 6.91771e-014 -3.18055e-014
lhumerus 90.145 -51.755 23.5533
lradius 39.0842
lwrist -43.5861
lhand -45.3783 48.9703
lfingers 7.12502
lthumb -18.1476 78.1437
rfemur -1.37549 -9.91158 23.8534
rtibia 16.655
rfoot -21.849 -21.1447
rtoes -0.629735
lfemur -24.1638 -5.84179 -4.48909
ltibia 34.3355
lfoot -15.3478 -8.14322
ltoes -16.7604
1733
root 0.422104 17.8036 1.16612 -0.289209 37.6725 -12.4727
lowerback 4.04754 4.36788 1.22405
upperback -0.102761 5.80294 -5.76501
thorax -1.64555 2.89802 -6.96842
lowerneck -22.7941 -14.7767 -12.4265
upperneck 1.20858 -17.7301 16.2987
head 6.55732 -7.54796 4.77253
rclavicle 1.11319e-014 4.77083e-014
rhumerus 60.8711 -12.0244 -14.708
rradius 40.4882
rwrist 50.4591
rhand -52.1786 -13.5558
rfingers 7.12502
rthumb -24.6787 -41.9844
lclavicle 1.11319e-014 4.77083e-014
lhumerus 90.145 -51.755 23.5533
lradius 39.0842
lwrist -43.5861
lhand -45.3783 48.9703
lfingers 7.12502
lthumb -18.1476 78.1437
rfemur -1.51295 -9.94202 23.8709
rtibia 16.7789
rfoot -21.7254 -21.0777
rtoes -0.839925
lfemur -24.2537 -5.8619 -4.44321
ltibia 34.3454
lfoot -15.3557 -8.16544
ltoes -16.8435
1734
root 0.422567 17.8036 1.16746 -0.213613 37.728 -12.5742
lowerback 3.88584 4.37296 1.13361
upperback -0.0845126 5.80919 -5.74025
thorax -1.54701 2.90423 -6.87473
lowerneck -22.6434 -14.7777 -12.7094
upperneck 1.06742 -17.7151 16.7542
head 6.5693 -7.52262 4.96633
rclavicle -3.65764e-014 1.59028e-014
rhumerus 60.5736 -11.7229 -14.2651
rradius 40.8657
rwrist 50.4216
rhand -52.266 -13.8654
rfingers 7.12502
rthumb -24.7625 -42.2825
lclavicle -3.65764e-014 1.59028e-014
lhumerus 90.145 -51.755 23.5533
lradius 39.0842
lwrist -43.5861
lhand -45.3783 48.9703
lfingers 7.12502
lthumb -18.1476 78.1437
rfemur -1.74979 -10.0707 23.954
rtibia 16.9395
rfoot -21.5834 -20.931
rtoes -0.938964
lfemur -24.4215 -5.88639 -4.32425
ltibia 34.3571
lfoot -15.3652 -8.20518
ltoes -16.7169
1735
root 0.422232 17.8059 1.16728 -0.20034 37.7648 -12.6353
lowerback 3.84762 4.38203 1.06055
upperback -0.0782497 5.81888 -5.75144
thorax -1.52404 2.91027 -6.84165
lowerneck -22.4802 -14.8007 -12.8776
upperneck 0.988811 -17.7568 17.085
head 6.58229 -7.53204 5.09363
rclavicle 9.30312e-014 -5.08889e-014
rhumerus 60.2621 -11.4047 -13.7627
rradius 41.2061
rwrist 50.3145
rhand -52.1811 -13.5152
rfingers 7.12502
rthumb -24.6811 -41.9434
lclavicle 9.30312e-014 -5.08889e-014
lhumerus 90.145 -51.755 23.5533
lradius 39.0842
lwrist -43.5861
lhand -45.3783 48.9703
lfingers 7.12502
lthumb -18.1476 78.1437
rfemur -1.89199 -10.2149 23.9888
rtibia 17.1324
rfoot -21.562 -20.7216
rtoes -0.980572
lfemur -24.4892 -5.92936 -4.25671
ltibia 34.3594
lfoot -15.3265 -8.19447
ltoes -16.9562
1736
root 0.421901 17.8085 1.16682 -0.235116 37.7372 -12.7017
lowerback 3.85805 4.40296 1.022
upperback -0.0809703 5.84463 -5.78455
thorax -1.52983 2.92348 -6.85693
lowerneck -22.3438 -14.8075 -12.6008
upperneck 0.802448 -17.8053 16.9004
head 6.46219 -7.57883 4.99637
rclavicle 9.06458e-014 -1.04958e-013
rhumerus 59.962 -11.0863 -13.5864
rradius 41.5635
rwrist 50.5122
rhand -52.4599 -12.2674
rfingers 7.12502
rthumb -24.9483 -40.6588
lclavicle 9.06458e-014 -1.04958e-013
lhumerus 90.145 -51.755 23.5533
lradius 39.0842
lwrist -43.5861
lhand -45.3783 48.9703
lfingers 7.12502
lthumb -18.1476 78.1437
rfemur -1.99393 -10.3023 24.026
rtibia 17.3115
rfoot -21.5095 -20.5824
rtoes -1.1864
lfemur -24.4947 -5.98396 -4.17905
ltibia 34.3641
lfoot -15.2834 -8.16876
ltoes -16.8942
